<svg width="17" height="13" viewBox="0 0 17 13" fill="none" xmlns="http://www.w3.org/2000/svg">
<path fill-rule="evenodd" clip-rule="evenodd" d="M16.7944 0.220357C16.8592 0.290031 16.9106 0.3728 16.9457 0.463925C16.9807 0.555049 16.9988 0.652738 16.9988 0.751397C16.9988 0.850055 16.9807 0.947744 16.9457 1.03887C16.9106 1.12999 16.8592 1.21276 16.7944 1.28244L7.05659 11.7832C6.99198 11.8531 6.91523 11.9085 6.83072 11.9463C6.74622 11.9841 6.65563 12.0036 6.56414 12.0036C6.47265 12.0036 6.38206 11.9841 6.29755 11.9463C6.21305 11.9085 6.13629 11.8531 6.07168 11.7832L1.20276 6.53283C1.07215 6.39199 0.998779 6.20097 0.998779 6.00179C0.998779 5.80261 1.07215 5.61159 1.20276 5.47075C1.33337 5.32991 1.51051 5.25078 1.69522 5.25078C1.87992 5.25078 2.05707 5.32991 2.18767 5.47075L6.56414 10.1916L15.8095 0.220357C15.8741 0.150507 15.9509 0.0950887 16.0354 0.0572762C16.1199 0.0194637 16.2105 0 16.302 0C16.3935 0 16.4841 0.0194637 16.5686 0.0572762C16.6531 0.0950887 16.7298 0.150507 16.7944 0.220357Z" fill="#FF7A00"/>
</svg>
